<svg version="1.1" id="Capa_1" xmlns="http://www.w3.org/2000/svg" xmlns:xlink="http://www.w3.org/1999/xlink" x="0px" y="0px"
	 width="200px" height="200px" viewBox="0 0 200 200" style="enable-background:new 0 0 200 200;" xml:space="preserve">
<g>
	<polygon points="3.526,132.68 81.187,132.68 111.396,67.322 33.734,67.322 	"/>
	<g>
		<path d="M132.685,83.222c-5.389,0.089-9.982,2.298-13.338,7.155h-0.178V67.321h-7.774v63.425h7.334v-5.742
			h0.176c1.59,2.562,4.858,7.064,12.719,7.064c15.724,0,20.317-14.75,20.317-25.789C151.94,93.294,144.964,83.222,132.685,83.222z
			 M131.447,125.359c-4.945,0-12.63-3.271-12.63-15.548c0-7.509,1.234-19.61,12.454-19.61c12.013,0,12.631,11.396,12.631,17.314
			C143.902,117.67,139.927,125.359,131.447,125.359z"/>
		<path d="M177.944,90.202c6.536,0,9.985,3.709,10.955,9.892h7.507c-0.618-8.036-5.211-16.872-17.313-16.872
			c-15.281,0-22.169,11.396-22.169,25.704c0,13.342,7.685,23.143,20.669,23.143c13.514,0,18.021-10.334,18.813-17.664h-7.507
			c-1.326,7.066-5.829,10.955-11.039,10.955c-10.688,0-12.633-9.807-12.633-17.757C165.228,99.386,168.32,90.202,177.944,90.202z"/>
	</g>
</g>
</svg>
