<svg version="1.1" id="Layer_1" xmlns="http://www.w3.org/2000/svg" xmlns:xlink="http://www.w3.org/1999/xlink" x="0px" y="0px"
	 width="96px" height="96px" viewBox="0 0 96 96" enable-background="new 0 0 96 96" xml:space="preserve">
<g>
	<path d="M90.796,65.736L74.779,49.72c-6.196-6.197-16.28-6.197-22.476-0.001l-4.705,4.706c-0.041,0.042-0.075,0.087-0.116,0.129
		l6.977,6.977c0.04-0.043,0.073-0.09,0.114-0.131l4.705-4.704c2.35-2.351,6.175-2.351,8.525,0l16.018,16.018
		c2.351,2.351,2.351,6.175,0,8.526l-2.584,2.581c-2.35,2.352-6.175,2.353-8.525,0l-7.179-7.178
		c-3.342,2.037-7.133,3.057-10.926,3.024l11.13,11.13c6.196,6.196,16.279,6.196,22.475,0l2.583-2.585
		C96.993,82.018,96.993,71.934,90.796,65.736z"/>
	<path d="M12.18,14.763l2.582-2.584c2.352-2.351,6.176-2.351,8.527,0l16.017,16.018c2.351,2.351,2.351,6.176,0,8.525l-4.704,4.706
		c-0.042,0.041-0.088,0.074-0.131,0.113l6.976,6.977c0.042-0.041,0.088-0.074,0.129-0.116l4.706-4.704
		c6.196-6.196,6.196-16.28-0.001-22.477L30.265,5.204c-6.197-6.196-16.281-6.196-22.476,0L5.204,7.788
		c-6.196,6.195-6.196,16.278,0,22.476l11.13,11.129c-0.032-3.793,0.988-7.583,3.024-10.925l-7.178-7.18
		C9.828,20.938,9.829,17.112,12.18,14.763z"/>
	<path d="M69.226,65.092l-6.976-6.976l-4.908,4.908c-2.351,2.352-6.176,2.352-8.526,0L32.798,47.008
		c-2.351-2.353-2.351-6.175,0-8.525l5.554-5.555l-6.974-6.975l-5.556,5.553c-6.196,6.196-6.196,16.279,0,22.476l16.019,16.02
		c6.196,6.196,16.279,6.196,22.476,0L69.226,65.092z"/>
</g>
</svg>
